{"title":"Arabs Got Talent HDTV-XviD [netsoldi3r]","uid":6306985,"size":841220142,"categoryP":"video","categoryS":"tv_shows","magnet":"?xt=urn:btih:5f8137ccdf6661dda4ea1c1d55c0b8299d6f9751&amp;dn=Arabs+Got+Talent+HDTV-XviD+%5Bnetsoldi3r%5D&amp;tr=udp%3A%2F%2Ftracker.openbittorrent.com%3A80&amp;tr=udp%3A%2F%2Fopen.demonii.com%3A1337&amp;tr=udp%3A%2F%2Ftracker.coppersurfer.tk%3A6969&amp;tr=udp%3A%2F%2Fexodus.desync.com%3A6969","seeders":0,"leechers":1,"uploader":"netsoldi3r","files":9,"time":1302372492,"description":"General\n\nComplete name                    : Arabs Got Talent.avi\nFormat                           : AVI\nFormat/Info                      : Audio Video Interleave\nFile size                        : 795 MiB\nDuration                         : 2h 2mn\nOverall bit rate                 : 908 Kbps\nWriting application              : MEncoder SVN-r30881(20100311-gcc4.3.3)\nWriting library                  : MPlayer\n\nVideo\nID                               : 0\nFormat                           : MPEG-4 Visual\nFormat profile                   : Advanced Simple@L5\nFormat settings, BVOP            : Yes\nFormat settings, QPel            : No\nFormat settings, GMC             : No warppoints\nFormat settings, Matrix          : Default (H.263)\nCodec ID                         : XVID\nCodec ID/Hint                    : XviD\nDuration                         : 2h 2mn\nBit rate                         : 768 Kbps\nWidth                            : 624 pixels\nHeight                           : 352 pixels\nDisplay aspect ratio             : 4:3\nFrame rate                       : 25.000 fps\nColor space                      : YUV\nChroma subsampling               : 4:2:0\nBit depth                        : 8 bits\nScan type                        : Progressive\nBits/(Pixel*Frame)               : 0.140\nStream size                      : 672 MiB (85%)\nWriting library                  : XviD 1.2.1 (UTC 2008-12-04)\n\nAudio\nID                               : 1\nFormat                           : MPEG Audio\nFormat version                   : Version 1\nFormat profile                   : Layer 3\nMode                             : Joint stereo\nMode extension                   : MS Stereo\nCodec ID                         : 55\nCodec ID/Hint                    : MP3\nDuration                         : 2h 2mn\nBit rate mode                    : Constant\nBit rate                         : 128 Kbps\nChannel(s)                       : 2 channels\nSampling rate                    : 44.1 KHz\nVideo delay                      : 40ms\nStream size                      : 112 MiB (14%)\nAlignment                        : Aligned on interleaves\nInterleave, duration             : 26 ms (0.65 video frame)\nInterleave, preload duration     : 522 ms\nWriting library                  : LAME3.98\n\n","torrent":{"xt":"urn:btih:5f8137ccdf6661dda4ea1c1d55c0b8299d6f9751","amp;dn":"Arabs+Got+Talent+HDTV-XviD+%5Bnetsoldi3r%5D","amp;tr":["udp%3A%2F%2Ftracker.openbittorrent.com%3A80","udp%3A%2F%2Fopen.demonii.com%3A1337","udp%3A%2F%2Ftracker.coppersurfer.tk%3A6969","udp%3A%2F%2Fexodus.desync.com%3A6969"],"infoHash":"5f8137ccdf6661dda4ea1c1d55c0b8299d6f9751","infoHashBuffer":{"type":"Buffer","data":[95,129,55,204,223,102,97,221,164,234,28,29,85,192,184,41,157,111,151,81]},"announce":[],"urlList":[]}}